#!OML:ASF E:\CV Data\Top Level 1\Subject 1\Session 1\player.ASF
:FULLY-SPECIFIED
:DEGREES
571
root -1.16488 17.6367 -9.95187 -7.59869 60.7266 -14.5794
lowerback 4.55253 -0.0174628 3.81944
upperback -2.90982 0.313227 1.02085
thorax -5.56745 0.03766 -1.11109
lowerneck 6.15104 -15.7106 -16.2401
upperneck -32.9327 -18.16 23.9549
head -6.7738 -9.24514 11.6852
rclavicle 9.82742e-015 2.14687e-014
rhumerus 84.4547 -22.1917 -62.6938
rradius 25.457
rwrist -9.62637
rhand -2.59879 -0.955572
rfingers 7.12502
rthumb 23.099 -29.591
lclavicle 9.82742e-015 2.14687e-014
lhumerus 38.5431 -18.253 28.1383
lradius 77.246
lwrist 1.45723
lhand 0.510873 -2.11688
lfingers 7.12502
lthumb 26.0796 26.1126
rfemur -11.887 0.583455 28.8668
rtibia 29.829
rfoot -18.8285 -17.2772
rtoes 4.93304
lfemur -12.492 -1.17733 -13.2264
ltibia 29.8626
lfoot -17.4555 -4.25145
ltoes 9.07451
572
root -1.16658 17.6424 -9.94469 -7.66752 60.9541 -14.7173
lowerback 4.64796 0.00218634 4.00661
upperback -2.88259 0.357443 1.03179
thorax -5.59135 0.052577 -1.20891
lowerneck 6.1531 -15.7923 -16.183
upperneck -32.9135 -18.2642 23.9776
head -6.74899 -9.30658 11.6712
rclavicle 8.01848e-014 9.93923e-015
rhumerus 84.7858 -22.3433 -63.6357
rradius 25.5366
rwrist -11.5967
rhand -3.4861 -0.727852
rfingers 7.12502
rthumb 22.2474 -29.4674
lclavicle 8.01848e-014 9.93923e-015
lhumerus 37.3424 -18.5972 29.2757
lradius 77.3047
lwrist 1.77026
lhand 0.353372 -1.95248
lfingers 7.12502
lthumb 25.9288 26.2992
rfemur -11.9017 0.483798 28.9307
rtibia 29.7301
rfoot -18.7684 -17.3955
rtoes 4.93924
lfemur -12.5852 -1.28631 -13.1604
ltibia 29.8263
lfoot -17.3793 -4.41574
ltoes 9.10331
573
root -1.16804 17.6482 -9.93779 -7.71392 61.1788 -14.8344
lowerback 4.72853 0.0236094 4.17736
upperback -2.85236 0.402836 1.05173
thorax -5.60335 0.0691657 -1.28833
lowerneck 6.13544 -15.8705 -16.123
upperneck -32.8808 -18.3662 23.9762
head -6.72101 -9.36413 11.6454
rclavicle -2.93456e-014 -5.1684e-015
rhumerus 85.1044 -22.4815 -64.5396
rradius 25.67
rwrist -13.6476
rhand -4.37869 -0.487063
rfingers 7.12502
rthumb 21.3903 -29.3263
lclavicle -2.93456e-014 -5.1684e-015
lhumerus 36.087 -18.9113 30.4952
lradius 77.383
lwrist 2.12518
lhand 0.153518 -1.76914
lfingers 7.12502
lthumb 25.7374 26.5104
rfemur -11.9234 0.379904 28.9827
rtibia 29.6356
rfoot -18.711 -17.5105
rtoes 4.9461
lfemur -12.6761 -1.38463 -13.1054
ltibia 29.7792
lfoot -17.3042 -4.59032
ltoes 9.13259
574
root -1.16935 17.6542 -9.93122 -7.74273 61.3983 -14.9389
lowerback 4.79434 0.0456936 4.33841
upperback -2.81916 0.448211 1.07942
thorax -5.60365 0.086586 -1.35427
lowerneck 6.09642 -15.9451 -16.0538
upperneck -32.8404 -18.4635 23.9525
head -6.69245 -9.41712 11.6082
rclavicle -1.2275e-014 -1.19271e-014
rhumerus 85.3865 -22.6095 -65.4037
rradius 25.8808
rwrist -15.8024
rhand -5.26436 -0.350698
rfingers 7.12502
rthumb 20.5394 -29.2842
lclavicle -1.2275e-014 -1.19271e-014
lhumerus 34.7846 -19.1902 31.7867
lradius 77.4765
lwrist 2.52635
lhand -0.081999 -1.56142
lfingers 7.12502
lthumb 25.5118 26.7506
rfemur -11.9527 0.27624 29.0285
rtibia 29.5435
rfoot -18.6538 -17.6266
rtoes 4.94139
lfemur -12.7695 -1.46401 -13.055
ltibia 29.7256
lfoot -17.2311 -4.7861
ltoes 9.19026
575
root -1.17058 17.6601 -9.92525 -7.75837 61.6092 -15.0403
lowerback 4.83875 0.0686947 4.4928
upperback -2.78063 0.493779 1.11872
thorax -5.58599 0.10511 -1.40435
lowerneck 6.04242 -16.0133 -15.983
upperneck -32.8048 -18.5506 23.9184
head -6.6669 -9.46331 11.5676
rclavicle -1.59773e-014 -1.98785e-014
rhumerus 85.631 -22.7338 -66.2024
rradius 26.1579
rwrist -18.0797
rhand -6.16176 -0.345831
rfingers 7.12502
rthumb 19.6769 -29.37
lclavicle -1.59773e-014 -1.98785e-014
lhumerus 33.4432 -19.4251 33.1463
lradius 77.5763
lwrist 2.96312
lhand -0.361329 -1.3257
lfingers 7.12502
lthumb 25.2442 27.0243
rfemur -11.9927 0.182719 29.0727
rtibia 29.451
rfoot -18.6003 -17.7456
rtoes 4.95804
lfemur -12.8732 -1.51503 -13.0043
ltibia 29.6701
lfoot -17.1615 -5.00583
ltoes 9.25886
